<svg xmlns="http://www.w3.org/2000/svg" version="1.1" xmlns:xlink="http://www.w3.org/1999/xlink" xmlns:svgjs="http://svgjs.dev/svgjs" width="1920" height="1080" preserveAspectRatio="none" viewBox="0 0 1920 1080"><g mask="url(&quot;#SvgjsMask1011&quot;)" fill="none"><path d="M270 170.53C229.9 170.53 175.5 221.72 175.5 270C175.5 315.41 229.28 357.91 270 357.91C302.07 357.91 321.08 314.62 321.08 270C321.08 220.93 302.69 170.53 270 170.53" stroke="rgba(194, 79, 51, 0.58)" stroke-width="2"></path><path d="M1194 0C1292.11 94.48 1289.93 260 1350 260C1403.39 260 1343.27 74.77 1420.91 0C1478.27 -55.23 1520.45 0 1620 0C1755 0 1755 0 1890 0C2025 0 2076.21 -51.21 2160 0C2211.21 31.29 2207.96 114.75 2160 165C2079.1 249.75 1912.07 186.21 1902.27 270C1890.14 373.71 2033.06 393.43 2116.13 540C2161.92 620.8 2144.86 631.57 2160 724.74C2166.8 766.57 2160 767.37 2160 810C2160 945 2227.5 1012.5 2160 1080C2092.5 1147.5 2025 1080 1890 1080C1755 1080 1755 1080 1620 1080C1485 1080 1485 1080 1350 1080C1215 1080 1215 1080 1080 1080C945 1080 945 1080 810 1080C728.57 1080 713.91 1111.49 647.14 1080C578.91 1047.81 605.06 1002.69 540 952.64C429.56 867.69 415.73 884.4 296.13 810C280.73 800.42 283.5 784.69 270 784.69C255.43 784.69 241.82 791.26 240 810C227.46 938.91 304.65 1008.71 241.28 1080C184.65 1143.71 56.93 1143.71 0 1080C-63.71 1008.71 0 945 0 810C0 675 0 675 0 540C0 405 0 405 0 270C0 135 -67.5 67.5 0 0C67.5 -67.5 135 0 270 0C405 0 405 0 540 0C675 0 675 0 810 0C945 0 945 0 1080 0C1137 0 1157.11 -35.52 1194 0" stroke="rgba(194, 79, 51, 0.58)" stroke-width="2"></path><path d="M540 501.43C505.28 501.43 470.77 515.66 470.77 540C470.77 570.47 505.15 611.05 540 611.05C575.29 611.05 611.05 570.37 611.05 540C611.05 515.56 575.42 501.43 540 501.43" stroke="rgba(194, 79, 51, 0.58)" stroke-width="2"></path><path d="M1080 350.27C1017.63 350.27 950 443.44 950 540C950 644.67 1017.8 752.73 1080 752.73C1140.34 752.73 1195.08 644.95 1195.08 540C1195.08 443.72 1140.17 350.27 1080 350.27" stroke="rgba(194, 79, 51, 0.58)" stroke-width="2"></path><path d="M0 231.43C1.7 231.43 6.75 251.1 6.75 270C6.75 278.33 1.76 285.88 0 285.88C-1.62 285.88 0 277.94 0 270C0 250.72 -1.67 231.43 0 231.43" stroke="rgba(194, 79, 51, 0.58)" stroke-width="2"></path><path d="M412.3 270C335.22 145.49 254.68 73.17 289.29 0C318.53 -61.83 414.64 0 540 0C675 0 675 0 810 0C929.72 0 1026.04 -59.77 1049.43 0C1078.87 75.23 973.34 131.2 915.65 270C861.12 401.2 858.62 402.53 825 540C805.8 618.53 819.06 702 810 702C800.9 702 838.1 594.36 788.68 540C703.1 445.86 653.59 486.49 540 405C465.4 351.49 460.58 347.99 412.3 270" stroke="rgba(194, 79, 51, 0.58)" stroke-width="2"></path><path d="M216 540C216 525.77 244.91 514.88 270 514.88C285.75 514.88 297.69 526.42 297.69 540C297.69 555.86 286.61 573.75 270 573.75C245.77 573.75 216 555.21 216 540" stroke="rgba(194, 79, 51, 0.58)" stroke-width="2"></path><path d="M513.87 810C513.87 800.36 523.91 788.68 540 788.68C617.97 788.68 702 800.83 702 810C702 819.13 619.31 825.28 540 825.28C525.25 825.28 513.87 818.66 513.87 810" stroke="rgba(194, 79, 51, 0.58)" stroke-width="2"></path><path d="M0 825C25.25 825 97.66 986.09 97.66 1080C97.66 1113.59 13.52 1115.31 0 1080C-35.31 987.81 -23.58 825 0 825" stroke="rgba(194, 79, 51, 0.58)" stroke-width="2"></path><path d="M754.29 1080C754.29 985 770.83 846 810 846C851.86 846 916.36 997.24 916.36 1080C916.36 1114.24 863.18 1080 810 1080C782.14 1080 754.29 1102 754.29 1080" stroke="rgba(194, 79, 51, 0.58)" stroke-width="2"></path><path d="M503.51 270C503.51 212.99 512.2 204.23 540 147.27C578.09 69.23 567.66 36.89 635.29 0C702.66 -36.74 722.64 0 810 0C866.04 0 922.08 -28.78 922.08 0C922.08 49.38 877.97 90.36 810 156.32C738.86 225.36 730.93 220.9 643.85 270C595.93 297.02 587.44 308.57 540 308.57C517.27 308.57 503.51 293.64 503.51 270" stroke="rgba(194, 79, 51, 0.58)" stroke-width="2"></path><path d="M1620 151.46C1559.91 143.2 1557.27 54.77 1557.27 0C1557.27 -20.96 1588.64 0 1620 0C1755 0 1755 0 1890 0C1940 0 1990 -10.9 1990 0C1990 11.98 1940.87 24.94 1890 45.76C1755.87 100.67 1726.28 166.08 1620 151.46" stroke="rgba(194, 79, 51, 0.58)" stroke-width="2"></path><path d="M1780.71 540C1780.71 501.62 1840.86 470.45 1890 470.45C1924.2 470.45 1947.38 503.34 1947.38 540C1947.38 584.02 1925.94 631.8 1890 631.8C1842.61 631.8 1780.71 582.29 1780.71 540" stroke="rgba(194, 79, 51, 0.58)" stroke-width="2"></path><path d="M1404 810C1493.7 732.76 1522.91 690 1620 690C1681.85 690 1671.8 749.29 1721.89 810C1806.8 912.9 1783.93 947.96 1890 1017.21C1990.71 1082.96 2135.45 1064.05 2135.45 1080C2135.45 1095.45 2012.72 1080 1890 1080C1755 1080 1755 1080 1620 1080C1485 1080 1485 1080 1350 1080C1331.82 1080 1313.65 1094.46 1313.65 1080C1313.65 1015.71 1324.51 998.68 1350 922.5C1369.68 863.68 1358.7 849.01 1404 810" stroke="rgba(194, 79, 51, 0.58)" stroke-width="2"></path></g><defs><mask id="SvgjsMask1011"><rect width="1920" height="1080" fill="#ffffff"></rect></mask></defs></svg>