<svg xmlns="http://www.w3.org/2000/svg" version="1.1" xmlns:xlink="http://www.w3.org/1999/xlink" xmlns:svgjs="http://svgjs.dev/svgjs" width="1440" height="560" preserveAspectRatio="none" viewBox="0 0 1440 560"><g clip-path="url(&quot;#SvgjsClipPath1007&quot;)" fill="none"><path d="M32.92 52.24Q40.92 54.44 48.92 56.64 56.93 58.8 64.93 60.97 72.93 63.09 80.93 65.21 88.94 67.28 96.94 69.35 104.94 71.35 112.94 73.36 120.94 75.29 128.95 77.22 136.95 79.06 144.95 80.91 152.95 82.66 160.96 84.42 168.96 86.07 176.96 87.73" stroke="rgba(255, 186, 0, 1)" stroke-width="4"></path><path d="M194.51 91.1Q197.48 91.64 200.45 92.19 203.42 92.71 206.4 93.23 209.37 93.74 212.34 94.25" stroke="rgba(253, 92, 55, 1)" stroke-width="4"></path><path d="M240.71 98.6Q246.2 99.33 251.69 100.06 257.18 100.73 262.68 101.39 268.17 101.99 273.66 102.59" stroke="rgba(255, 203, 0, 1)" stroke-width="4"></path><path d="M301.11 104.98Q308.85 105.45 316.58 105.93 324.32 106.27 332.05 106.6 339.79 106.79 347.52 106.98 355.26 107.03 363 107.07 370.73 106.97 378.47 106.87 386.2 106.62 393.94 106.38" stroke="rgba(255, 186, 0, 1)" stroke-width="4"></path><path d="M419.97 104.9Q427.91 104.25 435.84 103.6 443.78 102.81 451.72 102.02 459.66 101.09 467.59 100.15 475.53 99.08 483.47 98.01 491.4 96.81 499.34 95.61 507.28 94.28 515.22 92.95 523.15 91.5 531.09 90.06 539.03 88.5 546.97 86.94 554.9 85.27 562.84 83.6" stroke="rgba(253, 92, 55, 1)" stroke-width="4"></path><path d="M598.62 75.41Q608.24 73.04 617.86 70.67 627.47 68.2 637.09 65.73 646.71 63.18 656.33 60.63" stroke="rgba(255, 127, 0, 1)" stroke-width="4"></path><path d="M669.02 57.2Q677.49 54.87 685.97 52.55 694.44 50.2 702.91 47.84 711.38 45.48 719.86 43.12 728.33 40.75 736.8 38.39 745.28 36.04 753.75 33.69" stroke="rgba(255, 186, 0, 1)" stroke-width="4"></path><path d="M789.51 23.96Q791.4 23.46 793.3 22.95 795.19 22.45 797.09 21.95 798.99 21.45 800.88 20.96" stroke="rgba(255, 0, 0, 1)" stroke-width="4"></path><path d="M815.61 17.15Q823.51 15.16 831.41 13.18 839.32 11.26 847.22 9.35 855.12 7.51 863.02 5.68 870.92 3.94 878.83 2.19 886.73 0.54 894.63-1.1 902.53-2.65 910.43-4.19 918.33-5.62 926.24-7.05 934.14-8.36 942.04-9.67" stroke="rgba(255, 203, 0, 1)" stroke-width="4"></path><path d="M967.58-13.38Q975.75-14.38 983.93-15.38 992.1-16.24 1000.27-17.09 1008.45-17.79 1016.62-18.49 1024.79-19.04 1032.97-19.58 1041.14-19.97 1049.32-20.35 1057.49-20.57 1065.66-20.8 1073.84-20.86 1082.01-20.92 1090.18-20.82 1098.36-20.72 1106.53-20.45 1114.7-20.19 1122.88-19.77 1131.05-19.34" stroke="rgba(255, 127, 0, 1)" stroke-width="4"></path><path d="M1166.28-16.44Q1168.11-16.25 1169.95-16.06 1171.78-15.86 1173.61-15.66 1175.45-15.45 1177.28-15.24" stroke="rgba(255, 0, 0, 1)" stroke-width="4"></path><path d="M1212.88-10.46Q1219.91-9.34 1226.94-8.21 1233.97-6.99 1241-5.77 1248.03-4.46 1255.06-3.14" stroke="rgba(255, 186, 0, 1)" stroke-width="4"></path><path d="M1282.94 2.57Q1288.98 3.9 1295.02 5.24 1301.06 6.62 1307.1 8.01 1313.14 9.45 1319.18 10.88 1325.23 12.36 1331.27 13.84 1337.31 15.36 1343.35 16.88 1349.39 18.44 1355.43 19.99 1361.47 21.58 1367.51 23.17 1373.55 24.79 1379.59 26.4 1385.63 28.04 1391.67 29.68 1397.71 31.34 1403.76 33 1409.8 34.67 1415.84 36.34 1421.88 38.02 1427.92 39.7 1433.96 41.39 1440 43.08" stroke="rgba(253, 92, 55, 1)" stroke-width="4"></path><path d="M20.97 92Q25.65 93.3 30.33 94.6 35 95.89 39.68 97.18 44.36 98.46 49.04 99.74" stroke="rgba(255, 203, 0, 1)" stroke-width="4"></path><path d="M66.5 104.46Q74.95 106.7 83.4 108.93 91.85 111.11 100.31 113.28 108.76 115.38 117.21 117.48 125.66 119.49 134.11 121.5 142.56 123.42 151.01 125.34 159.47 127.15 167.92 128.96 176.37 130.66 184.82 132.35" stroke="rgba(255, 186, 0, 1)" stroke-width="4"></path><path d="M203.48 135.8Q207.04 136.41 210.6 137.03 214.16 137.62 217.72 138.21 221.28 138.78 224.84 139.34" stroke="rgba(255, 203, 0, 1)" stroke-width="4"></path><path d="M258.22 143.95Q266.34 144.85 274.45 145.75 282.57 146.5 290.68 147.25 298.8 147.85 306.92 148.44 315.03 148.89 323.15 149.33 331.26 149.61 339.38 149.9 347.5 150.02 355.61 150.14 363.73 150.11 371.85 150.07 379.96 149.87 388.08 149.67 396.19 149.32 404.31 148.96" stroke="rgba(255, 67, 0, 1)" stroke-width="4"></path><path d="M431.46 147.07Q440.2 146.23 448.94 145.39 457.68 144.39 466.42 143.38 475.16 142.2 483.9 141.03 492.64 139.69 501.38 138.36 510.12 136.87 518.86 135.38" stroke="rgba(255, 203, 0, 1)" stroke-width="4"></path><path d="M535.33 132.32Q542.83 130.82 550.34 129.32 557.84 127.73 565.35 126.14 572.85 124.46 580.36 122.78 587.86 121.02 595.37 119.27 602.87 117.44 610.38 115.61 617.88 113.72 625.39 111.83 632.89 109.88 640.4 107.94 647.9 105.95 655.41 103.95 662.91 101.92 670.42 99.89 677.92 97.83 685.43 95.77" stroke="rgba(255, 67, 0, 1)" stroke-width="4"></path><path d="M705.6 90.17Q707.44 89.66 709.28 89.15 711.12 88.63 712.97 88.12 714.81 87.6 716.65 87.09" stroke="rgba(255, 186, 0, 1)" stroke-width="4"></path><path d="M729.32 83.55Q737.65 81.23 745.99 78.91 754.32 76.61 762.66 74.31 770.99 72.04 779.33 69.77 787.66 67.54 796 65.32 804.33 63.15 812.67 60.97 821 58.87 829.34 56.77" stroke="rgba(255, 186, 0, 1)" stroke-width="4"></path><path d="M840 54.15Q847.69 52.33 855.38 50.51 863.06 48.77 870.75 47.03 878.44 45.37 886.13 43.72 893.82 42.16 901.51 40.6 909.19 39.15 916.88 37.69 924.57 36.34 932.26 35 939.95 33.77 947.64 32.53 955.32 31.42 963.01 30.31 970.7 29.33 978.39 28.34" stroke="rgba(255, 186, 0, 1)" stroke-width="4"></path><path d="M1017.06 24.55Q1023.02 24.14 1028.98 23.73 1034.93 23.41 1040.89 23.08 1046.85 22.84 1052.81 22.6" stroke="rgba(255, 203, 0, 1)" stroke-width="4"></path><path d="M1065.45 22.28Q1073.6 22.22 1081.75 22.16 1089.9 22.25 1098.05 22.35 1106.21 22.61 1114.36 22.87 1122.51 23.29 1130.66 23.71 1138.81 24.29 1146.96 24.87 1155.11 25.6 1163.26 26.33 1171.41 27.22 1179.57 28.1 1187.72 29.13 1195.87 30.16 1204.02 31.33 1212.17 32.5" stroke="rgba(255, 127, 0, 1)" stroke-width="4"></path><path d="M1248.72 38.73Q1256.73 40.29 1264.73 41.84 1272.74 43.51 1280.75 45.18 1288.76 46.94 1296.76 48.71 1304.77 50.57 1312.78 52.42 1320.79 54.36 1328.79 56.3 1336.8 58.32 1344.81 60.33" stroke="rgba(255, 67, 0, 1)" stroke-width="4"></path><path d="M1371.43 67.29Q1376.33 68.61 1381.23 69.92 1386.12 71.25 1391.02 72.58 1395.92 73.92 1400.82 75.27 1405.71 76.62 1410.61 77.97 1415.51 79.33 1420.41 80.69 1425.31 82.05 1430.2 83.42 1435.1 84.79 1440 86.15" stroke="rgba(255, 186, 0, 1)" stroke-width="4"></path><path d="M48.47 142.67Q56.77 144.91 65.06 147.16 73.36 149.35 81.65 151.55 89.95 153.69 98.24 155.83 106.54 157.9 114.83 159.97 123.13 161.96 131.43 163.95 139.72 165.85 148.02 167.75 156.31 169.55 164.61 171.35 172.9 173.03 181.2 174.72 189.49 176.29 197.79 177.86" stroke="rgba(255, 0, 0, 1)" stroke-width="4"></path><path d="M226.42 182.66Q234.58 183.85 242.75 185.04 250.91 186.08 259.08 187.13 267.24 188.02 275.41 188.92 283.57 189.67 291.74 190.41 299.9 191 308.06 191.59 316.23 192.03 324.39 192.46 332.56 192.73 340.72 193 348.89 193.11 357.05 193.23 365.22 193.17 373.38 193.12" stroke="rgba(255, 203, 0, 1)" stroke-width="4"></path><path d="M406.74 191.9Q415.3 191.33 423.86 190.76 432.42 190.02 440.98 189.28 449.54 188.37 458.11 187.46 466.67 186.38 475.23 185.31 483.79 184.08 492.35 182.85 500.91 181.47 509.47 180.1" stroke="rgba(255, 186, 0, 1)" stroke-width="4"></path><path d="M542.13 174.06Q549.25 172.6 556.38 171.14 563.5 169.6 570.63 168.05 577.75 166.43 584.88 164.82" stroke="rgba(255, 0, 0, 1)" stroke-width="4"></path><path d="M600.41 161.13Q608.46 159.15 616.51 157.16 624.55 155.1 632.6 153.05 640.65 150.94 648.7 148.82 656.74 146.66 664.79 144.5 672.84 142.3 680.89 140.1 688.94 137.87 696.98 135.65 705.03 133.41 713.08 131.16" stroke="rgba(255, 0, 0, 1)" stroke-width="4"></path><path d="M745.34 122.17Q753.79 119.84 762.23 117.5 770.68 115.2 779.13 112.9 787.57 110.65 796.02 108.39 804.46 106.19 812.91 103.99 821.36 101.86 829.8 99.73 838.25 97.68 846.7 95.63 855.14 93.67 863.59 91.71" stroke="rgba(255, 67, 0, 1)" stroke-width="4"></path><path d="M895.13 84.95Q903.29 83.36 911.44 81.77 919.6 80.31 927.76 78.84 935.91 77.5 944.07 76.16 952.23 74.96 960.38 73.75 968.54 72.69 976.7 71.62 984.85 70.7 993.01 69.79" stroke="rgba(255, 127, 0, 1)" stroke-width="4"></path><path d="M1004.11 68.71Q1011.92 68.07 1019.74 67.43 1027.55 66.94 1035.36 66.44 1043.18 66.09 1050.99 65.74 1058.81 65.54 1066.62 65.34 1074.43 65.29 1082.25 65.23 1090.06 65.33 1097.88 65.43 1105.69 65.67 1113.5 65.91 1121.32 66.3 1129.13 66.7" stroke="rgba(255, 203, 0, 1)" stroke-width="4"></path><path d="M1156.59 68.77Q1164.55 69.57 1172.51 70.37 1180.46 71.32 1188.42 72.26 1196.38 73.34 1204.34 74.42 1212.3 75.63 1220.26 76.85 1228.21 78.19 1236.17 79.52 1244.13 80.98 1252.09 82.44 1260.05 84.01 1268.01 85.58 1275.96 87.26 1283.92 88.94 1291.88 90.71 1299.84 92.49" stroke="rgba(255, 0, 0, 1)" stroke-width="4"></path><path d="M1314.04 95.8Q1322.44 97.84 1330.85 99.89 1339.25 102.01 1347.65 104.13 1356.06 106.33 1364.46 108.52" stroke="rgba(255, 67, 0, 1)" stroke-width="4"></path><path d="M1397.82 117.52Q1400.16 118.16 1402.51 118.81 1404.85 119.45 1407.19 120.1 1409.54 120.75 1411.88 121.4 1414.22 122.05 1416.57 122.7 1418.91 123.35 1421.25 124 1423.6 124.65 1425.94 125.31 1428.28 125.96 1430.63 126.61 1432.97 127.27 1435.31 127.92 1437.66 128.58 1440 129.23" stroke="rgba(253, 92, 55, 1)" stroke-width="4"></path><path d="M44.69 184.71Q52.37 186.8 60.05 188.89 67.73 190.94 75.41 192.99 83.09 194.99 90.77 197 98.45 198.95 106.13 200.9 113.81 202.78 121.49 204.67 129.17 206.48 136.85 208.29 144.53 210.02 152.21 211.76 159.89 213.4 167.57 215.04 175.25 216.59 182.93 218.14 190.61 219.58 198.29 221.03 205.97 222.36 213.65 223.7" stroke="rgba(255, 203, 0, 1)" stroke-width="4"></path><path d="M244.34 228.33Q250.86 229.16 257.39 230 263.91 230.74 270.43 231.48 276.96 232.13 283.48 232.77" stroke="rgba(255, 67, 0, 1)" stroke-width="4"></path><path d="M295.81 233.81Q303.87 234.36 311.93 234.91 319.99 235.3 328.05 235.69 336.11 235.92 344.17 236.16 352.23 236.23 360.29 236.31 368.35 236.23 376.41 236.14 384.47 235.9 392.53 235.66 400.59 235.27 408.65 234.87 416.71 234.32 424.77 233.77 432.83 233.07 440.89 232.36" stroke="rgba(253, 92, 55, 1)" stroke-width="4"></path><path d="M475.93 228.29Q483.76 227.17 491.59 226.05 499.42 224.8 507.25 223.55 515.08 222.18 522.9 220.81 530.73 219.33 538.56 217.85 546.39 216.26 554.22 214.67 562.05 212.98 569.88 211.3 577.71 209.52 585.54 207.74 593.37 205.88 601.19 204.02 609.02 202.08 616.85 200.15 624.68 198.15 632.51 196.15" stroke="rgba(255, 67, 0, 1)" stroke-width="4"></path><path d="M660.33 188.78Q665.88 187.28 671.42 185.77 676.97 184.25 682.51 182.73 688.06 181.2 693.6 179.66" stroke="rgba(255, 127, 0, 1)" stroke-width="4"></path><path d="M732.34 168.86Q740.66 166.55 748.98 164.24 757.3 161.94 765.62 159.65 773.94 157.39 782.26 155.13 790.58 152.92 798.9 150.71 807.22 148.55 815.54 146.39 823.86 144.31 832.18 142.22 840.5 140.21 848.82 138.2 857.14 136.28 865.46 134.36" stroke="rgba(255, 127, 0, 1)" stroke-width="4"></path><path d="M890.12 129.05Q898.55 127.37 906.98 125.7 915.42 124.15 923.85 122.6 932.28 121.18 940.71 119.77 949.14 118.5 957.58 117.22 966.01 116.1 974.44 114.98 982.87 114.01 991.3 113.04 999.73 112.23 1008.17 111.43 1016.6 110.78 1025.03 110.14" stroke="rgba(255, 203, 0, 1)" stroke-width="4"></path><path d="M1039.32 109.31Q1047.12 109 1054.92 108.69 1062.72 108.53 1070.52 108.36 1078.32 108.35 1086.12 108.33 1093.92 108.46 1101.72 108.59 1109.51 108.87 1117.31 109.15 1125.11 109.58 1132.91 110.01 1140.71 110.58 1148.51 111.15 1156.31 111.86 1164.11 112.57 1171.91 113.42 1179.71 114.27" stroke="rgba(253, 92, 55, 1)" stroke-width="4"></path><path d="M1196.48 116.4Q1204.27 117.52 1212.06 118.64 1219.85 119.89 1227.63 121.13 1235.42 122.5 1243.21 123.86 1251 125.34 1258.79 126.81 1266.58 128.4 1274.37 129.98 1282.15 131.66 1289.94 133.33 1297.73 135.1 1305.52 136.87" stroke="rgba(255, 203, 0, 1)" stroke-width="4"></path><path d="M1322.22 140.85Q1324.74 141.46 1327.26 142.08 1329.78 142.7 1332.3 143.33 1334.82 143.96 1337.34 144.59" stroke="rgba(255, 127, 0, 1)" stroke-width="4"></path><path d="M1364.63 151.64Q1367.98 152.53 1371.33 153.42 1374.68 154.31 1378.03 155.21 1381.38 156.12 1384.73 157.02" stroke="rgba(255, 127, 0, 1)" stroke-width="4"></path><path d="M1419.54 166.6Q1422.95 167.55 1426.36 168.5 1429.77 169.45 1433.18 170.4 1436.59 171.36 1440 172.31" stroke="rgba(255, 186, 0, 1)" stroke-width="4"></path><path d="M49.5 229.1Q57.46 231.25 65.42 233.41 73.38 235.52 81.34 237.63 89.31 239.68 97.27 241.74 105.23 243.73 113.19 245.72" stroke="rgba(255, 127, 0, 1)" stroke-width="4"></path><path d="M143.4 252.87Q151.19 254.59 158.98 256.3 166.77 257.93 174.56 259.55 182.35 261.07 190.13 262.6 197.92 264.01 205.71 265.42 213.5 266.72 221.29 268.02 229.08 269.19 236.87 270.37 244.66 271.42 252.45 272.47 260.24 273.38 268.02 274.3 275.81 275.08 283.6 275.86 291.39 276.5 299.18 277.14" stroke="rgba(255, 127, 0, 1)" stroke-width="4"></path><path d="M332.29 278.92Q337.85 279.07 343.41 279.22 348.98 279.29 354.54 279.37 360.1 279.37 365.66 279.37" stroke="rgba(255, 0, 0, 1)" stroke-width="4"></path><path d="M397.22 278.54Q404.92 278.12 412.62 277.71 420.32 277.15 428.02 276.59 435.72 275.89 443.42 275.19 451.12 274.36 458.82 273.53 466.52 272.56 474.22 271.6 481.93 270.51 489.63 269.42 497.33 268.21 505.03 266.99 512.73 265.66 520.43 264.33 528.13 262.9 535.83 261.46 543.53 259.91 551.23 258.37 558.93 256.73 566.63 255.09" stroke="rgba(255, 203, 0, 1)" stroke-width="4"></path><path d="M581.63 251.72Q589.86 249.78 598.09 247.85 606.32 245.82 614.55 243.8 622.78 241.71 631.01 239.62 639.24 237.46 647.47 235.3 655.69 233.1 663.92 230.89 672.15 228.64 680.38 226.39 688.61 224.12 696.84 221.84 705.07 219.55 713.3 217.26 721.53 214.96 729.76 212.66" stroke="rgba(255, 67, 0, 1)" stroke-width="4"></path><path d="M741.81 209.3Q749.87 207.07 757.94 204.84 766 202.63 774.06 200.43 782.13 198.26 790.19 196.09 798.25 193.97 806.32 191.85 814.38 189.78 822.44 187.72 830.51 185.73 838.57 183.73" stroke="rgba(255, 203, 0, 1)" stroke-width="4"></path><path d="M877.28 174.83Q885.87 173.03 894.46 171.24 903.05 169.56 911.65 167.89 920.24 166.35 928.83 164.81" stroke="rgba(255, 67, 0, 1)" stroke-width="4"></path><path d="M966.52 159.07Q971.23 158.47 975.94 157.87 980.64 157.32 985.35 156.77 990.06 156.26 994.77 155.76" stroke="rgba(255, 127, 0, 1)" stroke-width="4"></path><path d="M1031.57 152.81Q1039.21 152.43 1046.85 152.05 1054.49 151.82 1062.13 151.58 1069.76 151.48 1077.4 151.39 1085.04 151.44 1092.68 151.48 1100.32 151.67 1107.96 151.86 1115.6 152.19 1123.23 152.52 1130.87 152.99 1138.51 153.46 1146.15 154.07 1153.79 154.67" stroke="rgba(255, 186, 0, 1)" stroke-width="4"></path><path d="M1179.85 157.36Q1188.42 158.45 1196.98 159.54 1205.55 160.79 1214.12 162.03 1222.68 163.43 1231.25 164.82 1239.82 166.36 1248.38 167.89 1256.95 169.56 1265.51 171.23 1274.08 173.02 1282.65 174.82 1291.21 176.72 1299.78 178.63" stroke="rgba(255, 203, 0, 1)" stroke-width="4"></path><path d="M1325.03 184.61Q1330.78 186.03 1336.53 187.46 1342.28 188.92 1348.02 190.38 1353.77 191.88 1359.52 193.37 1365.27 194.89 1371.02 196.41 1376.77 197.96 1382.51 199.5 1388.26 201.06 1394.01 202.63 1399.76 204.21 1405.51 205.79 1411.26 207.38 1417.01 208.97 1422.75 210.57 1428.5 212.18 1434.25 213.78 1440 215.38" stroke="rgba(255, 0, 0, 1)" stroke-width="4"></path><path d="M49.69 272.23Q57.29 274.28 64.88 276.34 72.48 278.36 80.08 280.37 87.67 282.34 95.27 284.31 102.87 286.22 110.47 288.13 118.06 289.97 125.66 291.82 133.26 293.59 140.85 295.37 148.45 297.06 156.05 298.75 163.64 300.35 171.24 301.95 178.84 303.46 186.43 304.97 194.03 306.37 201.63 307.78 209.23 309.08 216.82 310.37 224.42 311.56 232.02 312.74 239.61 313.8 247.21 314.87" stroke="rgba(255, 127, 0, 1)" stroke-width="4"></path><path d="M268.7 317.45Q274.37 318.03 280.05 318.61 285.72 319.11 291.39 319.62 297.07 320.04 302.74 320.47" stroke="rgba(255, 67, 0, 1)" stroke-width="4"></path><path d="M335.62 322.1Q344.4 322.27 353.18 322.43 361.96 322.41 370.74 322.39 379.52 322.18 388.3 321.97 397.08 321.58 405.86 321.18 414.64 320.61 423.42 320.03" stroke="rgba(255, 127, 0, 1)" stroke-width="4"></path><path d="M434.85 319.08Q442.46 318.33 450.07 317.58 457.68 316.7 465.29 315.83 472.9 314.82 480.51 313.82" stroke="rgba(255, 203, 0, 1)" stroke-width="4"></path><path d="M511.67 308.95Q520.06 307.44 528.45 305.94 536.85 304.3 545.24 302.67 553.63 300.92 562.02 299.17 570.41 297.3 578.81 295.44 587.2 293.48 595.59 291.52 603.98 289.47 612.38 287.42 620.77 285.3 629.16 283.17" stroke="rgba(255, 67, 0, 1)" stroke-width="4"></path><path d="M648.72 278.05Q657.64 275.65 666.56 273.25 675.48 270.81 684.4 268.36 693.32 265.89 702.24 263.42 711.16 260.93 720.08 258.44 729 255.95 737.92 253.46" stroke="rgba(255, 203, 0, 1)" stroke-width="4"></path><path d="M752.2 249.5Q760.15 247.31 768.1 245.13 776.05 242.97 784 240.82 791.95 238.71 799.9 236.6 807.85 234.54 815.8 232.48 823.75 230.48 831.71 228.49 839.66 226.56 847.61 224.64 855.56 222.8 863.51 220.95 871.46 219.2 879.41 217.45 887.36 215.8 895.31 214.14" stroke="rgba(255, 67, 0, 1)" stroke-width="4"></path><path d="M921.31 209.2Q929.08 207.87 936.85 206.54 944.63 205.34 952.4 204.13 960.17 203.04 967.94 201.96" stroke="rgba(253, 92, 55, 1)" stroke-width="4"></path><path d="M1003.46 198Q1011.07 197.37 1018.67 196.74 1026.28 196.25 1033.89 195.75 1041.49 195.4 1049.1 195.04 1056.7 194.83 1064.31 194.61 1071.92 194.54 1079.52 194.46 1087.13 194.53 1094.74 194.59 1102.34 194.8 1109.95 195.01 1117.56 195.35 1125.16 195.7 1132.77 196.18 1140.37 196.67 1147.98 197.29 1155.59 197.91 1163.19 198.67 1170.8 199.42" stroke="rgba(255, 186, 0, 1)" stroke-width="4"></path><path d="M1187.45 201.37Q1195.15 202.4 1202.84 203.44 1210.54 204.6 1218.24 205.75 1225.93 207.03 1233.63 208.31 1241.33 209.7 1249.02 211.09 1256.72 212.59 1264.42 214.09 1272.11 215.68 1279.81 217.28 1287.51 218.97 1295.2 220.66 1302.9 222.44 1310.6 224.22 1318.29 226.07 1325.99 227.92 1333.69 229.84 1341.38 231.76 1349.08 233.75 1356.78 235.73 1364.47 237.76 1372.17 239.8" stroke="rgba(255, 127, 0, 1)" stroke-width="4"></path><path d="M1408.83 249.78Q1411.06 250.4 1413.28 251.02 1415.51 251.64 1417.74 252.25 1419.96 252.87 1422.19 253.49 1424.41 254.11 1426.64 254.73 1428.87 255.35 1431.09 255.98 1433.32 256.6 1435.55 257.22 1437.77 257.84 1440 258.46" stroke="rgba(255, 67, 0, 1)" stroke-width="4"></path><path d="M36.88 311.79Q37.78 312.04 38.67 312.29 39.57 312.53 40.47 312.78 41.36 313.03 42.26 313.27" stroke="rgba(255, 203, 0, 1)" stroke-width="4"></path><path d="M56.15 317.06Q64.43 319.28 72.71 321.5 80.99 323.67 89.27 325.84 97.55 327.95 105.83 330.05 114.11 332.08 122.39 334.11 130.67 336.06 138.95 338.01 147.23 339.86 155.51 341.71 163.79 343.45 172.07 345.2 180.35 346.83 188.63 348.46 196.91 349.97 205.19 351.48" stroke="rgba(255, 67, 0, 1)" stroke-width="4"></path><path d="M236.87 356.52Q241.28 357.13 245.69 357.74 250.1 358.31 254.51 358.88 258.92 359.4 263.33 359.93" stroke="rgba(255, 203, 0, 1)" stroke-width="4"></path><path d="M277.52 361.44Q285.15 362.12 292.77 362.8 300.4 363.35 308.02 363.9 315.65 364.31 323.28 364.72 330.9 364.99 338.53 365.26 346.15 365.39 353.78 365.51" stroke="rgba(255, 127, 0, 1)" stroke-width="4"></path><path d="M369.71 365.48Q377.57 365.31 385.43 365.14 393.29 364.83 401.16 364.51 409.02 364.04 416.88 363.58 424.74 362.97 432.6 362.35 440.46 361.6 448.32 360.84 456.19 359.95 464.05 359.06 471.91 358.03 479.77 357" stroke="rgba(255, 67, 0, 1)" stroke-width="4"></path><path d="M510.05 352.3Q518.22 350.85 526.39 349.4 534.57 347.82 542.74 346.25 550.91 344.56 559.08 342.87 567.26 341.08 575.43 339.29 583.6 337.4 591.77 335.51 599.94 333.53 608.12 331.56 616.29 329.5 624.46 327.45 632.63 325.33 640.81 323.22 648.98 321.04 657.15 318.87" stroke="rgba(255, 0, 0, 1)" stroke-width="4"></path><path d="M689.31 310.08Q697.49 307.81 705.67 305.54 713.85 303.25 722.03 300.97 730.21 298.69 738.39 296.41 746.57 294.14 754.75 291.87 762.93 289.63 771.11 287.38 779.29 285.17 787.48 282.97 795.66 280.81 803.84 278.65 812.02 276.54 820.2 274.44 828.38 272.41 836.56 270.37 844.74 268.42 852.92 266.47 861.1 264.6 869.28 262.74" stroke="rgba(255, 67, 0, 1)" stroke-width="4"></path><path d="M898.77 256.53Q906.44 255.06 914.11 253.58 921.78 252.22 929.45 250.86 937.13 249.61 944.8 248.36 952.47 247.22 960.14 246.09 967.81 245.09 975.48 244.08 983.15 243.2 990.82 242.32 998.49 241.58 1006.16 240.83 1013.84 240.22 1021.51 239.61 1029.18 239.14 1036.85 238.67 1044.52 238.34 1052.19 238.01" stroke="rgba(255, 0, 0, 1)" stroke-width="4"></path><path d="M1074.39 237.56Q1082.19 237.58 1089.98 237.6 1097.78 237.77 1105.58 237.94 1113.38 238.25 1121.17 238.57 1128.97 239.03 1136.77 239.49 1144.57 240.1 1152.36 240.7 1160.16 241.45 1167.96 242.19 1175.75 243.08 1183.55 243.96 1191.35 244.98 1199.15 245.99 1206.94 247.14 1214.74 248.28" stroke="rgba(253, 92, 55, 1)" stroke-width="4"></path><path d="M1243.3 253.11Q1251.37 254.64 1259.43 256.17 1267.5 257.82 1275.57 259.46 1283.63 261.21 1291.7 262.96 1299.77 264.8 1307.83 266.64 1315.9 268.57 1323.96 270.5 1332.03 272.51 1340.1 274.52 1348.16 276.59 1356.23 278.66 1364.3 280.79 1372.36 282.92 1380.43 285.1 1388.5 287.28 1396.56 289.49 1404.63 291.7" stroke="rgba(255, 186, 0, 1)" stroke-width="4"></path><path d="M7.17 346.62Q14.87 348.76 22.56 350.91 30.26 353.04 37.96 355.17 45.65 357.27 53.35 359.38 61.05 361.45 68.74 363.53 76.44 365.56 84.14 367.59 91.83 369.57 99.53 371.54" stroke="rgba(255, 67, 0, 1)" stroke-width="4"></path><path d="M118.1 376.15Q126.24 378.09 134.38 380.03 142.52 381.88 150.66 383.72 158.81 385.47 166.95 387.22 175.09 388.86 183.23 390.5 191.37 392.03 199.51 393.55" stroke="rgba(255, 67, 0, 1)" stroke-width="4"></path><path d="M217.66 396.66Q225.9 397.93 234.14 399.21 242.39 400.34 250.63 401.46 258.87 402.45 267.11 403.43 275.35 404.26 283.59 405.09 291.84 405.77 300.08 406.44 308.32 406.95 316.56 407.47 324.8 407.82 333.05 408.17 341.29 408.36 349.53 408.55" stroke="rgba(255, 0, 0, 1)" stroke-width="4"></path><path d="M366.24 408.59Q374.98 408.43 383.71 408.27 392.45 407.93 401.19 407.58 409.92 407.06 418.66 406.53 427.4 405.82 436.13 405.12 444.87 404.23 453.61 403.35 462.34 402.3 471.08 401.24" stroke="rgba(253, 92, 55, 1)" stroke-width="4"></path><path d="M485.23 399.3Q494.48 397.87 503.73 396.44 512.98 394.84 522.23 393.24 531.48 391.48 540.73 389.73" stroke="rgba(253, 92, 55, 1)" stroke-width="4"></path><path d="M570.17 383.54Q578.91 381.55 587.64 379.56 596.38 377.46 605.11 375.37 613.85 373.19 622.59 371.01 631.32 368.75 640.06 366.49 648.79 364.17 657.53 361.85" stroke="rgba(253, 92, 55, 1)" stroke-width="4"></path><path d="M693.86 351.9Q701.5 349.77 709.13 347.65 716.77 345.52 724.41 343.38 732.04 341.26 739.68 339.13 747.32 337.01 754.96 334.89 762.59 332.8 770.23 330.7 777.87 328.64 785.5 326.57 793.14 324.55 800.78 322.52 808.41 320.55 816.05 318.57 823.69 316.65 831.32 314.74 838.96 312.88 846.6 311.03 854.24 309.26 861.87 307.48 869.51 305.79 877.15 304.09 884.78 302.49 892.42 300.88" stroke="rgba(255, 67, 0, 1)" stroke-width="4"></path><path d="M928.55 294.09Q936.51 292.79 944.46 291.49 952.41 290.31 960.37 289.14 968.33 288.1 976.28 287.06 984.24 286.16 992.19 285.26 1000.14 284.5 1008.1 283.74" stroke="rgba(255, 127, 0, 1)" stroke-width="4"></path><path d="M1047.35 281.26Q1055.7 281.02 1064.06 280.77 1072.41 280.69 1080.76 280.62 1089.12 280.71 1097.47 280.8" stroke="rgba(255, 127, 0, 1)" stroke-width="4"></path><path d="M1109.5 281.14Q1117.51 281.51 1125.52 281.87 1133.53 282.39 1141.54 282.91 1149.55 283.58 1157.56 284.25 1165.57 285.06 1173.58 285.88" stroke="rgba(255, 127, 0, 1)" stroke-width="4"></path><path d="M1186.47 287.4Q1194.59 288.48 1202.71 289.57 1210.82 290.8 1218.94 292.02 1227.06 293.38 1235.18 294.73 1243.3 296.22 1251.42 297.7 1259.53 299.3 1267.65 300.9 1275.77 302.61 1283.89 304.31 1292.01 306.12 1300.12 307.93 1308.24 309.84 1316.36 311.74 1324.48 313.72 1332.6 315.71 1340.72 317.77 1348.83 319.82 1356.95 321.94 1365.07 324.06" stroke="rgba(255, 0, 0, 1)" stroke-width="4"></path><path d="M1381.4 328.43Q1383.84 329.09 1386.28 329.75 1388.72 330.42 1391.17 331.08 1393.61 331.75 1396.05 332.42 1398.49 333.09 1400.93 333.76 1403.37 334.43 1405.82 335.1 1408.26 335.78 1410.7 336.46 1413.14 337.13 1415.58 337.81 1418.02 338.49 1420.47 339.17 1422.91 339.85 1425.35 340.53 1427.79 341.21 1430.23 341.89 1432.67 342.57 1435.12 343.25 1437.56 343.93 1440 344.62" stroke="rgba(255, 67, 0, 1)" stroke-width="4"></path><path d="M0.05 387.71Q8.11 389.96 16.17 392.2 24.23 394.44 32.29 396.68 40.35 398.9 48.41 401.11 56.48 403.29 64.54 405.48 72.6 407.62 80.66 409.75 88.72 411.84 96.78 413.92" stroke="rgba(255, 0, 0, 1)" stroke-width="4"></path><path d="M130.43 422.18Q138.23 423.98 146.04 425.77 153.84 427.48 161.65 429.18 169.45 430.79 177.26 432.4 185.06 433.91 192.87 435.42 200.67 436.81 208.48 438.21 216.28 439.49 224.08 440.76 231.89 441.92 239.69 443.08 247.5 444.1 255.3 445.13 263.11 446.02 270.91 446.92 278.72 447.67 286.52 448.43 294.33 449.05 302.13 449.66" stroke="rgba(253, 92, 55, 1)" stroke-width="4"></path><path d="M333.33 451.26Q340.88 451.44 348.43 451.61 355.98 451.65 363.53 451.68 371.09 451.58 378.64 451.48 386.19 451.24 393.74 451 401.29 450.62 408.84 450.24 416.39 449.73 423.94 449.22 431.5 448.57 439.05 447.92 446.6 447.15 454.15 446.37 461.7 445.46 469.25 444.56 476.8 443.53 484.35 442.5 491.91 441.35 499.46 440.2 507.01 438.94 514.56 437.68" stroke="rgba(255, 203, 0, 1)" stroke-width="4"></path><path d="M548.31 431.28Q556.41 429.57 564.51 427.86 572.61 426.05 580.71 424.24 588.81 422.34 596.91 420.44 605.01 418.45 613.11 416.47 621.21 414.42 629.31 412.36 637.42 410.24 645.52 408.13 653.62 405.96 661.72 403.79 669.82 401.59 677.92 399.38 686.02 397.14 694.12 394.9 702.22 392.65 710.32 390.39" stroke="rgba(255, 0, 0, 1)" stroke-width="4"></path><path d="M749.86 379.38Q758.52 376.99 767.18 374.61 775.84 372.26 784.5 369.92 793.16 367.62 801.83 365.32 810.49 363.09 819.15 360.86 827.81 358.71 836.47 356.55" stroke="rgba(255, 67, 0, 1)" stroke-width="4"></path><path d="M871.83 348.33Q880.01 346.58 888.18 344.83 896.36 343.19 904.54 341.55 912.72 340.03 920.89 338.51 929.07 337.11 937.25 335.71" stroke="rgba(253, 92, 55, 1)" stroke-width="4"></path><path d="M967.1 331.3Q974.76 330.35 982.43 329.41 990.09 328.59 997.76 327.77 1005.42 327.09 1013.08 326.4 1020.75 325.85 1028.41 325.31 1036.08 324.9 1043.74 324.49" stroke="rgba(255, 186, 0, 1)" stroke-width="4"></path><path d="M1077.11 323.7Q1084.86 323.74 1092.62 323.79 1100.37 323.98 1108.12 324.17 1115.88 324.51 1123.63 324.85" stroke="rgba(253, 92, 55, 1)" stroke-width="4"></path><path d="M1133.9 325.45Q1137.28 325.69 1140.67 325.92 1144.05 326.18 1147.43 326.44 1150.82 326.73 1154.2 327.02" stroke="rgba(255, 203, 0, 1)" stroke-width="4"></path><path d="M1186.43 330.47Q1194.09 331.49 1201.74 332.51 1209.4 333.66 1217.05 334.8 1224.71 336.06 1232.37 337.32 1240.02 338.7 1247.68 340.07 1255.33 341.55 1262.99 343.03 1270.65 344.61 1278.3 346.19 1285.96 347.86 1293.61 349.54 1301.27 351.29 1308.93 353.05 1316.58 354.89 1324.24 356.72 1331.89 358.63 1339.55 360.53" stroke="rgba(255, 203, 0, 1)" stroke-width="4"></path><path d="M1364.93 367.1Q1370.29 368.53 1375.65 369.96 1381.02 371.41 1386.38 372.85 1391.74 374.32 1397.1 375.78 1402.46 377.26 1407.83 378.74 1413.19 380.22 1418.55 381.71 1423.91 383.21 1429.28 384.7 1434.64 386.2 1440 387.69" stroke="rgba(255, 0, 0, 1)" stroke-width="4"></path><path d="M48.97 444.34Q56.58 446.4 64.19 448.46 71.79 450.48 79.4 452.5 87.01 454.47 94.62 456.45 102.22 458.36 109.83 460.28 117.44 462.13 125.05 463.98 132.65 465.76 140.26 467.54 147.87 469.23 155.48 470.93 163.08 472.54 170.69 474.15 178.3 475.66 185.91 477.17 193.51 478.59 201.12 480 208.73 481.3 216.34 482.6 223.94 483.79 231.55 484.98" stroke="rgba(253, 92, 55, 1)" stroke-width="4"></path><path d="M268.92 489.78Q276.42 490.53 283.91 491.27 291.41 491.89 298.91 492.51 306.4 492.99 313.9 493.48" stroke="rgba(255, 203, 0, 1)" stroke-width="4"></path><path d="M326.23 494.08Q334.09 494.32 341.95 494.57 349.81 494.67 357.66 494.77 365.52 494.71 373.38 494.66 381.24 494.46 389.1 494.25 396.96 493.9 404.81 493.55 412.67 493.05 420.53 492.55 428.39 491.9 436.25 491.26 444.11 490.47 451.97 489.69 459.82 488.76 467.68 487.83 475.54 486.77 483.4 485.71" stroke="rgba(253, 92, 55, 1)" stroke-width="4"></path><path d="M507.95 481.89Q513.94 480.85 519.93 479.81 525.91 478.7 531.9 477.59 537.89 476.42 543.88 475.25" stroke="rgba(255, 186, 0, 1)" stroke-width="4"></path><path d="M558.92 472.14Q567.5 470.25 576.09 468.37 584.67 466.38 593.26 464.39 601.85 462.3 610.43 460.21 619.01 458.05 627.6 455.88" stroke="rgba(253, 92, 55, 1)" stroke-width="4"></path><path d="M654.68 448.76Q662.68 446.6 670.69 444.43 678.69 442.24 686.69 440.04 694.7 437.82 702.7 435.6" stroke="rgba(255, 67, 0, 1)" stroke-width="4"></path><path d="M720.51 430.63Q728.82 428.31 737.13 425.99 745.44 423.68 753.75 421.38 762.06 419.1 770.37 416.82 778.68 414.57 786.99 412.33 795.29 410.13 803.6 407.94 811.91 405.8 820.22 403.67 828.53 401.6 836.84 399.54 845.15 397.55 853.46 395.57 861.77 393.68 870.08 391.79" stroke="rgba(255, 0, 0, 1)" stroke-width="4"></path><path d="M899.49 385.62Q908.34 383.93 917.19 382.25 926.04 380.71 934.89 379.17 943.74 377.79 952.59 376.41 961.44 375.19 970.29 373.96 979.14 372.91 987.99 371.86" stroke="rgba(255, 203, 0, 1)" stroke-width="4"></path><path d="M1006.51 370.03Q1012.7 369.53 1018.9 369.03 1025.09 368.62 1031.29 368.21 1037.48 367.89 1043.68 367.57" stroke="rgba(255, 0, 0, 1)" stroke-width="4"></path><path d="M1061.51 366.98Q1069.49 366.88 1077.47 366.77 1085.45 366.83 1093.43 366.88 1101.42 367.09 1109.4 367.3 1117.38 367.66 1125.36 368.02 1133.34 368.53 1141.32 369.05 1149.3 369.71 1157.28 370.37 1165.27 371.18 1173.25 371.99 1181.23 372.95 1189.21 373.9 1197.19 374.99 1205.17 376.08 1213.15 377.3 1221.13 378.53 1229.12 379.88 1237.1 381.23 1245.08 382.7 1253.06 384.16" stroke="rgba(255, 127, 0, 1)" stroke-width="4"></path><path d="M1288.69 391.52Q1295.57 393.07 1302.45 394.62 1309.32 396.24 1316.2 397.85 1323.08 399.53 1329.96 401.21 1336.83 402.94 1343.71 404.66 1350.59 406.44 1357.47 408.22 1364.34 410.03 1371.22 411.85 1378.1 413.7 1384.98 415.55 1391.86 417.43 1398.73 419.31 1405.61 421.21 1412.49 423.11 1419.37 425.02 1426.24 426.93 1433.12 428.85 1440 430.77" stroke="rgba(255, 0, 0, 1)" stroke-width="4"></path><path d="M23.77 480.47Q26.8 481.31 29.82 482.15 32.84 482.99 35.87 483.82 38.9 484.65 41.92 485.49" stroke="rgba(255, 186, 0, 1)" stroke-width="4"></path><path d="M72.08 493.64Q80.4 495.83 88.71 498.01 97.03 500.12 105.35 502.24 113.66 504.28 121.98 506.32 130.3 508.28 138.61 510.24 146.93 512.1 155.25 513.96 163.56 515.71 171.88 517.47" stroke="rgba(255, 186, 0, 1)" stroke-width="4"></path><path d="M200.57 522.98Q208.48 524.33 216.38 525.69 224.29 526.92 232.2 528.15 240.1 529.25 248.01 530.36 255.92 531.32 263.83 532.29 271.73 533.12 279.64 533.95 287.55 534.64 295.45 535.32 303.36 535.86 311.27 536.4 319.17 536.8 327.08 537.19 334.99 537.43 342.9 537.67 350.8 537.76 358.71 537.85" stroke="rgba(255, 203, 0, 1)" stroke-width="4"></path><path d="M388.45 537.35Q396.77 536.98 405.1 536.61 413.42 536.07 421.75 535.54 430.07 534.84 438.39 534.14 446.72 533.28 455.04 532.42 463.37 531.41 471.69 530.4 480.01 529.23 488.34 528.07 496.66 526.77 504.98 525.46 513.31 524.02 521.63 522.58 529.96 521.01 538.28 519.44" stroke="rgba(255, 0, 0, 1)" stroke-width="4"></path><path d="M550.94 516.89Q559 515.17 567.05 513.46 575.11 511.64 583.17 509.83 591.23 507.92 599.28 506.02 607.34 504.04 615.4 502.05" stroke="rgba(253, 92, 55, 1)" stroke-width="4"></path><path d="M647.41 493.78Q655.29 491.67 663.16 489.56 671.04 487.41 678.92 485.26 686.8 483.08 694.67 480.9 702.55 478.71 710.43 476.52" stroke="rgba(255, 0, 0, 1)" stroke-width="4"></path><path d="M745.71 466.68Q748.05 466.03 750.39 465.38 752.73 464.74 755.07 464.09 757.41 463.45 759.75 462.8" stroke="rgba(255, 186, 0, 1)" stroke-width="4"></path><path d="M793.7 453.62Q802.25 451.38 810.81 449.15 819.36 446.98 827.91 444.81 836.47 442.73 845.02 440.64 853.57 438.65 862.13 436.65 870.68 434.76 879.24 432.87 887.79 431.1 896.34 429.32 904.9 427.67 913.45 426.01" stroke="rgba(255, 67, 0, 1)" stroke-width="4"></path><path d="M930.32 423.02Q935.99 422.09 941.66 421.16 947.32 420.29 952.99 419.42 958.66 418.63 964.33 417.83" stroke="rgba(255, 127, 0, 1)" stroke-width="4"></path><path d="M991.39 414.57Q999.22 413.82 1007.06 413.06 1014.89 412.45 1022.72 411.83 1030.56 411.37 1038.39 410.9 1046.22 410.58 1054.06 410.26 1061.89 410.08 1069.72 409.91 1077.56 409.89 1085.39 409.86 1093.23 409.99 1101.06 410.12 1108.89 410.39 1116.73 410.67 1124.56 411.09 1132.39 411.51 1140.23 412.08 1148.06 412.65" stroke="rgba(255, 186, 0, 1)" stroke-width="4"></path><path d="M1171.97 414.93Q1179.33 415.79 1186.69 416.66 1194.05 417.64 1201.4 418.62 1208.76 419.71 1216.12 420.81" stroke="rgba(255, 127, 0, 1)" stroke-width="4"></path><path d="M1234.59 423.86Q1242.73 425.34 1250.88 426.83 1259.02 428.43 1267.16 430.03 1275.31 431.74 1283.45 433.45 1291.59 435.26 1299.73 437.08 1307.88 438.98 1316.02 440.89 1324.16 442.88 1332.31 444.87 1340.45 446.93 1348.59 448.99 1356.74 451.12 1364.88 453.24 1373.02 455.42 1381.16 457.6 1389.31 459.81 1397.45 462.03" stroke="rgba(255, 67, 0, 1)" stroke-width="4"></path><path d="M8.2 519.21Q16.02 521.39 23.85 523.57 31.67 525.73 39.49 527.9 47.32 530.03 55.14 532.17 62.96 534.27 70.78 536.38 78.61 538.43 86.43 540.49 94.25 542.49 102.08 544.5 109.9 546.43 117.72 548.37 125.55 550.24 133.37 552.1" stroke="rgba(253, 92, 55, 1)" stroke-width="4"></path><path d="M162.01 558.49Q169.83 560.1 177.65 561.71 185.47 563.22 193.28 564.72 201.1 566.12 208.92 567.51 216.74 568.79 224.56 570.07" stroke="rgba(255, 203, 0, 1)" stroke-width="4"></path><path d="M234.76 571.6Q243.28 572.76 251.81 573.92 260.33 574.93 268.85 575.93 277.38 576.77 285.9 577.61 294.42 578.28 302.95 578.95 311.47 579.45 319.99 579.95 328.52 580.28 337.04 580.6" stroke="rgba(255, 127, 0, 1)" stroke-width="4"></path><path d="M359.22 580.92Q366.72 580.86 374.22 580.8 381.72 580.6 389.22 580.4 396.73 580.07 404.23 579.74 411.73 579.27 419.23 578.8 426.73 578.2 434.23 577.6 441.73 576.86 449.23 576.13 456.73 575.27 464.24 574.42 471.74 573.44 479.24 572.45 486.74 571.35 494.24 570.25" stroke="rgba(255, 203, 0, 1)" stroke-width="4"></path><path d="M527.21 564.63Q535.9 562.95 544.58 561.26 553.27 559.45 561.96 557.64 570.64 555.71 579.33 553.79 588.02 551.75 596.7 549.72 605.39 547.59 614.08 545.46 622.76 543.25 631.45 541.04" stroke="rgba(255, 186, 0, 1)" stroke-width="4"></path><path d="M648.01 536.7Q649.52 536.29 651.04 535.89 652.56 535.49 654.07 535.08 655.59 534.67 657.1 534.27" stroke="rgba(255, 127, 0, 1)" stroke-width="4"></path><path d="M684.22 526.87Q687.42 525.99 690.62 525.11 693.82 524.22 697.02 523.33 700.22 522.44 703.42 521.55" stroke="rgba(255, 186, 0, 1)" stroke-width="4"></path><path d="M723.12 516.05Q731.23 513.79 739.34 511.53 747.46 509.28 755.57 507.03 763.68 504.81 771.79 502.58 779.91 500.39 788.02 498.21 796.13 496.07 804.24 493.92 812.35 491.84 820.47 489.76 828.58 487.74 836.69 485.73" stroke="rgba(255, 127, 0, 1)" stroke-width="4"></path><path d="M862.44 479.66Q870.61 477.85 878.78 476.05 886.95 474.35 895.11 472.64 903.28 471.05 911.45 469.46 919.62 468 927.79 466.53 935.96 465.19 944.12 463.85 952.29 462.64 960.46 461.43 968.63 460.37 976.8 459.3 984.97 458.38 993.13 457.47 1001.3 456.7 1009.47 455.93" stroke="rgba(255, 127, 0, 1)" stroke-width="4"></path><path d="M1044.47 453.69Q1052.09 453.43 1059.71 453.17 1067.33 453.06 1074.95 452.94 1082.57 452.96 1090.19 452.99 1097.81 453.15 1105.42 453.32 1113.04 453.62 1120.66 453.93 1128.28 454.37 1135.9 454.82 1143.52 455.4 1151.14 455.98" stroke="rgba(255, 0, 0, 1)" stroke-width="4"></path><path d="M1173.38 458.16Q1181.7 459.16 1190.02 460.16 1198.35 461.3 1206.67 462.45 1214.99 463.74 1223.31 465.03 1231.64 466.46 1239.96 467.89 1248.28 469.45 1256.6 471 1264.92 472.68 1273.25 474.36 1281.57 476.15 1289.89 477.94 1298.21 479.83 1306.54 481.72 1314.86 483.71 1323.18 485.7" stroke="rgba(253, 92, 55, 1)" stroke-width="4"></path><path d="M1341.08 490.15Q1347.26 491.74 1353.45 493.32 1359.63 494.94 1365.81 496.57 1371.99 498.22 1378.18 499.87 1384.36 501.54 1390.54 503.22 1396.72 504.91 1402.9 506.61 1409.09 508.32 1415.27 510.03 1421.45 511.75 1427.63 513.47 1433.82 515.2 1440 516.92" stroke="rgba(255, 186, 0, 1)" stroke-width="4"></path></g><defs><clipPath id="SvgjsClipPath1007"><rect width="1440" height="560" x="0" y="0"></rect></clipPath></defs></svg>